<?xml version="1.0" encoding="utf-8"?>
<!-- Generator: Adobe Illustrator 19.2.1, SVG Export Plug-In . SVG Version: 6.00 Build 0)  -->
<svg version="1.1" id="Layer_1" xmlns="http://www.w3.org/2000/svg" xmlns:xlink="http://www.w3.org/1999/xlink" x="0px" y="0px"
	 viewBox="0 0 60 60" style="enable-background:new 0 0 60 10;" xml:space="preserve">
<path d="M56.25,46.0920639c-0.0605469,0-0.1220703-0.0078125-0.1816406-0.0224609
	c-19.9775391-4.9931641-32.1582031-4.9931641-52.1362305,0c-0.2270508,0.0537109-0.4609375,0.0058594-0.6435547-0.1367188
	C3.1064453,45.7912827,3,45.5725327,3,45.3420639V14.6584682c0-0.230957,0.1064453-0.4492188,0.2885742-0.5913086
	c0.1826172-0.1416016,0.4165039-0.1918945,0.6435547-0.1362305c19.9775391,4.9941406,32.1586914,4.9941406,52.1362305,0
	c0.2216797-0.0571289,0.4609375-0.0063477,0.6435547,0.1362305C56.8935547,14.2092495,57,14.4275112,57,14.6584682v30.6835957
	c0,0.2304688-0.1064453,0.4492188-0.2880859,0.5908203C56.578125,46.0373764,56.4150391,46.0920639,56.25,46.0920639z
	 M30,40.8625717c7.9570312,0,15.9150391,1.1738281,25.5,3.5214844v-28.76758c-19.1699219,4.6953125-31.8291016,4.6953125-51,0
	v28.76758C14.0854492,42.0363998,22.0429688,40.8625717,30,40.8625717z"/>
</svg>
